Coordinates
version=1
nRows=16
nColumns=22
inDegrees=yes

Units are S.I. units (second, meters, Newtons, ...)
If the header above contains a line with 'inDegrees', this indicates whether rotational values are in degrees (yes) or radians (no).

endheader
time	pelvis_tilt	pelvis_list	pelvis_rotation	pelvis_tx	pelvis_ty	pelvis_tz	hip_flexion_r	hip_adduction_r	hip_rotation_r	knee_angle_r	ankle_angle_r	subtalar_angle_r	hip_flexion_l	hip_adduction_l	hip_rotation_l	knee_angle_l	ankle_angle_l	subtalar_angle_l	lumbar_extension	lumbar_bending	lumbar_rotation
      1.31000000	      3.09296469	     -5.75539572	     -0.27547597	      0.96599400	      0.92502385	      0.03152605	     10.18173604	      7.92145333	    -14.35570370	    -21.26276796	      8.15518646	     -6.48235686	     20.20690616	    -11.31768192	     -2.36908718	    -55.74056626	     13.37552210	     -0.66115503	    -17.45779498	      5.10090756	     -0.54551008
      1.32000000	      3.03580802	     -5.83980028	     -0.36740362	      0.96411216	      0.92478695	      0.03151745	     10.35214767	      8.00932887	    -14.34504523	    -21.21542450	      7.99578046	     -6.50128157	     19.97154848	    -11.43401873	     -2.39009964	    -57.34578550	     13.29079753	     -0.84047254	    -17.24689605	      5.27107907	     -0.56441871
      1.33000000	      2.96021962	     -5.92680791	     -0.45367078	      0.96224316	      0.92452352	      0.03144971	     10.53929013	      8.09650254	    -14.34129784	    -21.16443385	      7.83666811	     -6.51328134	     19.67341668	    -11.54172734	     -2.40298602	    -58.89121789	     13.17758043	     -0.99438278	    -16.98987923	      5.45297811	     -0.62588746
      1.34000000	      2.87589833	     -6.01264472	     -0.53063961	      0.96035237	      0.92424514	      0.03131056	     10.73977367	      8.17747942	    -14.33956723	    -21.11905153	      7.68411966	     -6.51717074	     19.30351968	    -11.63721491	     -2.40831177	    -60.35715333	     13.03983098	     -1.08472626	    -16.70756434	      5.64364849	     -0.72791039
      1.35000000	      2.78912410	     -6.09400899	     -0.60087455	      0.95843432	      0.92395894	      0.03110651	     10.94840858	      8.24680991	    -14.35785940	    -21.08140926	      7.54656747	     -6.51591751	     18.85339144	    -11.72871648	     -2.43091229	    -61.72540989	     12.88290727	     -1.09318029	    -16.40818910	      5.83858346	     -0.86817979
      1.36000000	      2.67875802	     -6.17832529	     -0.64406398	      0.95646393	      0.92361567	      0.03082793	     11.19269922	      8.31620768	    -14.36812803	    -21.05437104	      7.39315309	     -6.51278788	     18.36114963	    -11.81723025	     -2.43843926	    -62.99166639	     12.74902029	     -1.01150986	    -16.06809646	      6.04463914	     -1.07495467
      1.37000000	      2.54848049	     -6.26040190	     -0.66332759	      0.95442493	      0.92322300	      0.03045846	     11.47081721	      8.37650156	    -14.38603850	    -21.03899966	      7.23915552	     -6.50892698	     17.82296294	    -11.89571491	     -2.43528406	    -64.13978584	     12.61664757	     -0.81702565	    -15.69640986	      6.26222144	     -1.33580405
      1.38000000	      2.41838197	     -6.32779936	     -0.65976144	      0.95232942	      0.92281855	      0.03000783	     11.76098058	      8.41460636	    -14.41136315	    -21.03881307	      7.09645372	     -6.50997895	     17.21124901	    -11.95590288	     -2.43822729	    -65.14768302	     12.47288391	     -0.55160758	    -15.31543134	      6.47067772	     -1.65104086
      1.39000000	      2.27466933	     -6.38295811	     -0.63417607	      0.95017173	      0.92236824	      0.02947382	     12.08221127	      8.43347362	    -14.43440095	    -21.06030134	      6.97962685	     -6.51553206	     16.54321754	    -11.99481514	     -2.43610993	    -66.00615270	     12.35556017	     -0.14654786	    -14.90993400	      6.67313895	     -2.01845978
      1.40000000	      2.16250834	     -6.43049691	     -0.57978883	      0.94797419	      0.92197716	      0.02885600	     12.36619062	      8.44134258	    -14.46098104	    -21.06729095	      6.84221002	     -6.53559914	     15.77634851	    -12.02855838	     -2.45489359	    -66.70375338	     12.13108962	     -0.01552391	    -14.53220638	      6.87079991	     -2.42791814
      1.41000000	      2.02806660	     -6.48926009	     -0.47346477	      0.94572005	      0.92151375	      0.02811775	     12.68295370	      8.44766077	    -14.53317236	    -21.07666444	      6.70630001	     -6.56401400	     14.99324727	    -12.06446846	     -2.43700541	    -67.25818691	     11.92647987	      0.16707014	    -14.11352970	      7.09477614	     -2.91566108
      1.42000000	      1.89463924	     -6.54114628	     -0.34314556	      0.94340616	      0.92103227	      0.02729817	     13.00911753	      8.44139127	    -14.60225516	    -21.09671780	      6.58432125	     -6.59640056	     14.16019002	    -12.09002518	     -2.42369593	    -67.65677135	     11.70624805	      0.29724921	    -13.68709083	      7.31339868	     -3.44849012
      1.43000000	      1.75880112	     -6.59785826	     -0.15748499	      0.94104829	      0.92052049	      0.02636327	     13.34403853	      8.42438997	    -14.71889247	    -21.11795332	      6.46331123	     -6.63596427	     13.29922296	    -12.11752696	     -2.38415116	    -67.90290632	     11.47149263	      0.40903924	    -13.23624761	      7.54232111	     -4.04844633
      1.44000000	      1.61958009	     -6.66445865	      0.07384170	      0.93863414	      0.91996269	      0.02530519	     13.69013031	      8.39657178	    -14.91084774	    -21.14376389	      6.36634617	     -6.68850646	     12.42131616	    -12.15432867	     -2.32467973	    -68.01090782	     11.25431056	      0.55899515	    -12.76389778	      7.79021700	     -4.70584472
      1.45000000	      1.48785884	     -6.71353172	      0.32624096	      0.93609169	      0.91940144	      0.02418465	     14.04558217	      8.35029176	    -15.03716628	    -21.18239347	      6.24702973	     -6.72822122	     11.51346474	    -12.16701584	     -2.26042237	    -67.97243570	     11.02169163	      0.60366583	    -12.29614793	      8.01036726	     -5.41161314
      1.46000000	      1.35793827	     -6.77349779	      0.63886503	      0.93348875	      0.91880162	      0.02292165	     14.40734725	      8.28296362	    -15.28785125	    -21.22827250	      6.16102179	     -6.77213860	     10.60095688	    -12.19571468	     -2.17019517	    -67.80075217	     10.81874283	      0.67625226	    -11.80652406	      8.24628170	     -6.16755934
